<mxfile host="Electron" modified="2023-10-25T19:23:39.300Z" agent="Mozilla/5.0 (Windows NT 10.0; Win64; x64) AppleWebKit/537.36 (KHTML, like Gecko) draw.io/21.6.1 Chrome/112.0.5615.204 Electron/24.6.1 Safari/537.36" etag="xuFeg1_YHN1e5U30iHiZ" version="21.6.1" type="device">
  <diagram name="Page-1" id="SmXYeL52s2CfzjQr3O0h">
    <mxGraphModel dx="1036" dy="606" grid="1" gridSize="10" guides="1" tooltips="1" connect="1" arrows="1" fold="1" page="1" pageScale="1" pageWidth="850" pageHeight="1100" math="0" shadow="0">
      <root>
        <mxCell id="0" />
        <mxCell id="1" parent="0" />
        <mxCell id="djR4J-DLp6pO6Vdt1Eoc-22" value="&lt;font style=&quot;font-size: 18px;&quot;&gt;ROUTER&lt;/font&gt;" style="rounded=1;whiteSpace=wrap;html=1;fontStyle=1;fillColor=#808080;" parent="1" vertex="1">
          <mxGeometry x="70" y="200" width="280" height="160" as="geometry" />
        </mxCell>
        <mxCell id="djR4J-DLp6pO6Vdt1Eoc-23" value="&lt;span&gt;Port:1&lt;/span&gt;" style="rounded=1;whiteSpace=wrap;html=1;rotation=-90;fontStyle=1" parent="1" vertex="1">
          <mxGeometry x="140" y="330" width="70" height="30" as="geometry" />
        </mxCell>
        <mxCell id="djR4J-DLp6pO6Vdt1Eoc-24" value="Port: 2" style="rounded=1;whiteSpace=wrap;html=1;rotation=-90;fontStyle=1" parent="1" vertex="1">
          <mxGeometry x="170" y="330" width="70" height="30" as="geometry" />
        </mxCell>
        <mxCell id="djR4J-DLp6pO6Vdt1Eoc-25" value="Port: 3" style="rounded=1;whiteSpace=wrap;html=1;rotation=-90;fontStyle=1" parent="1" vertex="1">
          <mxGeometry x="200" y="330" width="70" height="30" as="geometry" />
        </mxCell>
        <mxCell id="djR4J-DLp6pO6Vdt1Eoc-26" value="Port: 4" style="rounded=1;whiteSpace=wrap;html=1;rotation=-90;fontStyle=1" parent="1" vertex="1">
          <mxGeometry x="230" y="330" width="70" height="30" as="geometry" />
        </mxCell>
        <mxCell id="djR4J-DLp6pO6Vdt1Eoc-27" value="Port: 5" style="rounded=1;whiteSpace=wrap;html=1;rotation=-90;fontStyle=1" parent="1" vertex="1">
          <mxGeometry x="260" y="330" width="70" height="30" as="geometry" />
        </mxCell>
        <mxCell id="djR4J-DLp6pO6Vdt1Eoc-29" value="" style="ellipse;whiteSpace=wrap;html=1;aspect=fixed;direction=south;fontStyle=1" parent="1" vertex="1">
          <mxGeometry x="110" y="340" width="20" height="20" as="geometry" />
        </mxCell>
        <mxCell id="djR4J-DLp6pO6Vdt1Eoc-30" value="Power" style="text;html=1;align=center;verticalAlign=middle;resizable=0;points=[];autosize=1;strokeColor=none;fillColor=none;fontStyle=1" parent="1" vertex="1">
          <mxGeometry x="90" y="317" width="60" height="30" as="geometry" />
        </mxCell>
        <mxCell id="djR4J-DLp6pO6Vdt1Eoc-31" value="&lt;font style=&quot;font-size: 17px;&quot; color=&quot;#ffffff&quot;&gt;PLUG PC&lt;/font&gt;" style="rounded=0;whiteSpace=wrap;html=1;fontStyle=1;fillColor=#000000;" parent="1" vertex="1">
          <mxGeometry x="490" y="200" width="220" height="150" as="geometry" />
        </mxCell>
        <mxCell id="djR4J-DLp6pO6Vdt1Eoc-32" value="Eth: 1" style="rounded=1;whiteSpace=wrap;html=1;rotation=-90;fontStyle=1" parent="1" vertex="1">
          <mxGeometry x="630" y="330" width="50" height="30" as="geometry" />
        </mxCell>
        <mxCell id="djR4J-DLp6pO6Vdt1Eoc-33" value="Eth: 2" style="rounded=1;whiteSpace=wrap;html=1;rotation=-90;fontStyle=1" parent="1" vertex="1">
          <mxGeometry x="660" y="330" width="50" height="30" as="geometry" />
        </mxCell>
        <mxCell id="djR4J-DLp6pO6Vdt1Eoc-34" value="" style="ellipse;whiteSpace=wrap;html=1;aspect=fixed;direction=south;fontStyle=1" parent="1" vertex="1">
          <mxGeometry x="610" y="330" width="20" height="20" as="geometry" />
        </mxCell>
        <mxCell id="djR4J-DLp6pO6Vdt1Eoc-35" value="&lt;font color=&quot;#ffffff&quot;&gt;Power&lt;/font&gt;" style="text;html=1;align=center;verticalAlign=middle;resizable=0;points=[];autosize=1;strokeColor=none;fillColor=none;fontStyle=1" parent="1" vertex="1">
          <mxGeometry x="590" y="300" width="60" height="30" as="geometry" />
        </mxCell>
        <mxCell id="djR4J-DLp6pO6Vdt1Eoc-36" value="" style="rounded=0;whiteSpace=wrap;html=1;rotation=-90;fontStyle=1" parent="1" vertex="1">
          <mxGeometry x="490" y="330" width="30" height="10" as="geometry" />
        </mxCell>
        <mxCell id="djR4J-DLp6pO6Vdt1Eoc-37" value="`" style="rounded=0;whiteSpace=wrap;html=1;rotation=-90;fontStyle=1" parent="1" vertex="1">
          <mxGeometry x="500" y="330" width="30" height="10" as="geometry" />
        </mxCell>
        <mxCell id="djR4J-DLp6pO6Vdt1Eoc-38" value="&lt;font color=&quot;#ffffff&quot; style=&quot;font-size: 10px;&quot;&gt;USB&#39;s&lt;/font&gt;" style="text;html=1;align=center;verticalAlign=middle;resizable=0;points=[];autosize=1;strokeColor=none;fillColor=none;fontStyle=1" parent="1" vertex="1">
          <mxGeometry x="487" y="292" width="50" height="30" as="geometry" />
        </mxCell>
        <mxCell id="djR4J-DLp6pO6Vdt1Eoc-41" value="" style="rounded=0;whiteSpace=wrap;html=1;strokeColor=#BABA00;fillColor=#BABA00;rotation=-90;fontStyle=1" parent="1" vertex="1">
          <mxGeometry x="150.47" y="397.03" width="49.06" height="10" as="geometry" />
        </mxCell>
        <mxCell id="djR4J-DLp6pO6Vdt1Eoc-42" value="" style="rounded=0;whiteSpace=wrap;html=1;strokeColor=#BABA00;fillColor=#BABA00;rotation=-180;fontStyle=1" parent="1" vertex="1">
          <mxGeometry x="97.5" y="417" width="82.5" height="10" as="geometry" />
        </mxCell>
        <mxCell id="djR4J-DLp6pO6Vdt1Eoc-44" value="&lt;span style=&quot;font-size: 10px;&quot;&gt;&lt;span&gt;Port 1:&lt;br&gt;Customer&amp;nbsp;&lt;br&gt;Network&lt;/span&gt;&lt;br&gt;&lt;/span&gt;" style="text;html=1;align=center;verticalAlign=middle;resizable=0;points=[];autosize=1;strokeColor=none;fillColor=none;fontStyle=1" parent="1" vertex="1">
          <mxGeometry x="27.5" y="392" width="70" height="60" as="geometry" />
        </mxCell>
        <mxCell id="djR4J-DLp6pO6Vdt1Eoc-45" value="" style="rounded=0;whiteSpace=wrap;html=1;strokeColor=#14BA1A;fillColor=#14BA1A;rotation=-90;fontStyle=1" parent="1" vertex="1">
          <mxGeometry x="170.47" y="407.5" width="70" height="10" as="geometry" />
        </mxCell>
        <mxCell id="djR4J-DLp6pO6Vdt1Eoc-46" value="" style="rounded=0;whiteSpace=wrap;html=1;strokeColor=#14BA1A;fillColor=#14BA1A;rotation=0;fontStyle=1" parent="1" vertex="1">
          <mxGeometry x="201" y="437" width="459" height="10" as="geometry" />
        </mxCell>
        <mxCell id="djR4J-DLp6pO6Vdt1Eoc-47" value="" style="rounded=0;whiteSpace=wrap;html=1;strokeColor=#14BA1A;fillColor=#14BA1A;rotation=-90;fontStyle=1" parent="1" vertex="1">
          <mxGeometry x="620" y="398.5" width="70" height="10" as="geometry" />
        </mxCell>
        <mxCell id="djR4J-DLp6pO6Vdt1Eoc-48" value="" style="rounded=0;whiteSpace=wrap;html=1;strokeColor=#3399FF;fillColor=#007FFF;rotation=-90;fontStyle=1" parent="1" vertex="1">
          <mxGeometry x="169.76" y="436.76" width="129.53" height="10" as="geometry" />
        </mxCell>
        <mxCell id="djR4J-DLp6pO6Vdt1Eoc-49" value="" style="rounded=0;whiteSpace=wrap;html=1;strokeColor=#3399FF;fillColor=#007FFF;rotation=-90;fontStyle=1" parent="1" vertex="1">
          <mxGeometry x="201" y="437" width="129.53" height="10" as="geometry" />
        </mxCell>
        <mxCell id="djR4J-DLp6pO6Vdt1Eoc-50" value="" style="rounded=0;whiteSpace=wrap;html=1;strokeColor=#3399FF;fillColor=#007FFF;rotation=-90;fontStyle=1" parent="1" vertex="1">
          <mxGeometry x="230.23" y="437" width="129.53" height="10" as="geometry" />
        </mxCell>
        <mxCell id="djR4J-DLp6pO6Vdt1Eoc-51" value="&lt;font style=&quot;font-size: 14px;&quot;&gt;&lt;span&gt;Ports 3+:&lt;br&gt;Switches/Controllers&lt;/span&gt;&lt;/font&gt;" style="text;html=1;align=center;verticalAlign=middle;resizable=0;points=[];autosize=1;strokeColor=none;fillColor=none;fontStyle=1" parent="1" vertex="1">
          <mxGeometry x="185.76" y="505" width="160" height="50" as="geometry" />
        </mxCell>
      </root>
    </mxGraphModel>
  </diagram>
</mxfile>
